<svg width="16" height="17" viewBox="0 0 16 17" fill="none" xmlns="http://www.w3.org/2000/svg">
  <path d="M15.334 3.16675V7.16675H11.334" stroke="white" stroke-linecap="round"
    stroke-linejoin="round" />
  <path d="M0.666016 13.8333V9.83325H4.66602" stroke="white" stroke-linecap="round"
    stroke-linejoin="round" />
  <path
    d="M2.33935 6.49989C2.67746 5.54441 3.2521 4.69016 4.00966 4.01683C4.76722 3.34351 5.68299 2.87306 6.67154 2.64939C7.66009 2.42572 8.68919 2.45612 9.66281 2.73774C10.6364 3.01936 11.5229 3.54303 12.2393 4.25989L15.3327 7.16655M0.666016 9.83322L3.75935 12.7399C4.47585 13.4567 5.36226 13.9804 6.33589 14.262C7.30951 14.5437 8.33861 14.5741 9.32716 14.3504C10.3157 14.1267 11.2315 13.6563 11.989 12.9829C12.7466 12.3096 13.3212 11.4554 13.6593 10.4999"
    stroke="white" stroke-linecap="round" stroke-linejoin="round" />
</svg>
